<?xml version="1.0" encoding="UTF-8" standalone="no"?>
<!-- Created with Inkscape (http://www.inkscape.org/) -->

<svg
   xmlns:dc="http://purl.org/dc/elements/1.1/"
   xmlns:cc="http://creativecommons.org/ns#"
   xmlns:rdf="http://www.w3.org/1999/02/22-rdf-syntax-ns#"
   xmlns:svg="http://www.w3.org/2000/svg"
   xmlns="http://www.w3.org/2000/svg"
   xmlns:sodipodi="http://sodipodi.sourceforge.net/DTD/sodipodi-0.dtd"
   xmlns:inkscape="http://www.inkscape.org/namespaces/inkscape"
   version="1.1"
   id="svg975"
   xml:space="preserve"
   width="400"
   height="400"
   viewBox="0 0 400 400"
   sodipodi:docname="united-states-of-america-flag-round.svg"
   inkscape:version="0.92.3 (2405546, 2018-03-11)"><metadata
     id="metadata981"><rdf:RDF><cc:Work
         rdf:about=""><dc:format>image/svg+xml</dc:format><dc:type
           rdf:resource="http://purl.org/dc/dcmitype/StillImage" /><dc:title></dc:title></cc:Work></rdf:RDF></metadata><defs
     id="defs979"><clipPath
       clipPathUnits="userSpaceOnUse"
       id="clipPath991"><path
         d="M 150,300 C 67.157,300 0,232.843 0,150 v 0 C 0,67.157 67.157,0 150,0 v 0 c 82.843,0 150,67.157 150,150 v 0 c 0,82.843 -67.157,150 -150,150 z"
         id="path989"
         inkscape:connector-curvature="0" /></clipPath></defs><sodipodi:namedview
     pagecolor="#ffffff"
     bordercolor="#666666"
     borderopacity="1"
     objecttolerance="10"
     gridtolerance="10"
     guidetolerance="10"
     inkscape:pageopacity="0"
     inkscape:pageshadow="2"
     inkscape:window-width="1920"
     inkscape:window-height="1017"
     id="namedview977"
     showgrid="false"
     inkscape:zoom="0.59"
     inkscape:cx="200"
     inkscape:cy="200"
     inkscape:window-x="-8"
     inkscape:window-y="-8"
     inkscape:window-maximized="1"
     inkscape:current-layer="g983" /><g
     id="g983"
     inkscape:groupmode="layer"
     inkscape:label="united-states-of-america-flag-round"
     transform="matrix(1.3333333,0,0,-1.3333333,0,400)"><g
       id="g985"><g
         id="g987"
         clip-path="url(#clipPath991)"><path
           d="M 0,300 H 570 V 0 H 0 Z"
           style="fill:#ffffff;fill-opacity:1;fill-rule:nonzero;stroke:none"
           id="path993"
           inkscape:connector-curvature="0" /><path
           d="M 0,300 H 570 V 276.923 H 0 Z"
           style="fill:#b22234;fill-opacity:1;fill-rule:nonzero;stroke:none"
           id="path995"
           inkscape:connector-curvature="0" /><path
           d="M 0,253.846 H 570 V 230.769 H 0 Z"
           style="fill:#b22234;fill-opacity:1;fill-rule:nonzero;stroke:none"
           id="path997"
           inkscape:connector-curvature="0" /><path
           d="M 0,207.692 H 570 V 184.615 H 0 Z"
           style="fill:#b22234;fill-opacity:1;fill-rule:nonzero;stroke:none"
           id="path999"
           inkscape:connector-curvature="0" /><path
           d="M 0,161.538 H 570 V 138.461 H 0 Z"
           style="fill:#b22234;fill-opacity:1;fill-rule:nonzero;stroke:none"
           id="path1001"
           inkscape:connector-curvature="0" /><path
           d="M 0,115.385 H 570 V 92.309 H 0 Z"
           style="fill:#b22234;fill-opacity:1;fill-rule:nonzero;stroke:none"
           id="path1003"
           inkscape:connector-curvature="0" /><path
           d="M 0,69.231 H 570 V 46.154 H 0 Z"
           style="fill:#b22234;fill-opacity:1;fill-rule:nonzero;stroke:none"
           id="path1005"
           inkscape:connector-curvature="0" /><path
           d="M 0,23.077 H 570 V 0 H 0 Z"
           style="fill:#b22234;fill-opacity:1;fill-rule:nonzero;stroke:none"
           id="path1007"
           inkscape:connector-curvature="0" /><path
           d="M 0,300 H 228 V 138.462 H 0 Z"
           style="fill:#3c3b6e;fill-opacity:1;fill-rule:nonzero;stroke:none"
           id="path1009"
           inkscape:connector-curvature="0" /><g
           id="g1011"
           transform="translate(10.7119,286.8859)"><path
             d="m 0,0 5.431,-3.946 -2.074,-6.385 5.431,3.946 5.431,-3.946 -2.075,6.385 L 17.575,0 H 10.862 L 8.788,6.385 6.713,0 Z"
             style="fill:#ffffff;fill-opacity:1;fill-rule:nonzero;stroke:none"
             id="path1013"
             inkscape:connector-curvature="0" /></g><g
           id="g1015"
           transform="translate(48.5118,286.8859)"><path
             d="m 0,0 5.431,-3.946 -2.074,-6.385 5.431,3.946 5.431,-3.946 -2.075,6.385 L 17.575,0 H 10.862 L 8.788,6.385 6.713,0 Z"
             style="fill:#ffffff;fill-opacity:1;fill-rule:nonzero;stroke:none"
             id="path1017"
             inkscape:connector-curvature="0" /></g><g
           id="g1019"
           transform="translate(86.312,286.8859)"><path
             d="m 0,0 5.431,-3.946 -2.074,-6.385 5.431,3.946 5.431,-3.946 -2.075,6.385 L 17.575,0 H 10.862 L 8.788,6.385 6.713,0 Z"
             style="fill:#ffffff;fill-opacity:1;fill-rule:nonzero;stroke:none"
             id="path1021"
             inkscape:connector-curvature="0" /></g><g
           id="g1023"
           transform="translate(124.1122,286.8859)"><path
             d="m 0,0 5.431,-3.946 -2.074,-6.385 5.431,3.946 5.431,-3.946 -2.075,6.385 L 17.575,0 H 10.862 L 8.788,6.385 6.713,0 Z"
             style="fill:#ffffff;fill-opacity:1;fill-rule:nonzero;stroke:none"
             id="path1025"
             inkscape:connector-curvature="0" /></g><g
           id="g1027"
           transform="translate(161.9118,286.8859)"><path
             d="m 0,0 5.431,-3.946 -2.074,-6.385 5.431,3.946 5.431,-3.946 -2.075,6.385 L 17.575,0 H 10.862 L 8.788,6.385 6.713,0 Z"
             style="fill:#ffffff;fill-opacity:1;fill-rule:nonzero;stroke:none"
             id="path1029"
             inkscape:connector-curvature="0" /></g><g
           id="g1031"
           transform="translate(199.7117,286.8859)"><path
             d="m 0,0 5.431,-3.946 -2.074,-6.385 5.431,3.946 5.431,-3.946 -2.075,6.385 L 17.575,0 H 10.862 L 8.788,6.385 6.713,0 Z"
             style="fill:#ffffff;fill-opacity:1;fill-rule:nonzero;stroke:none"
             id="path1033"
             inkscape:connector-curvature="0" /></g><g
           id="g1035"
           transform="translate(29.6117,270.6857)"><path
             d="m 0,0 5.431,-3.946 -2.074,-6.385 5.431,3.946 5.431,-3.946 -2.075,6.385 L 17.575,0 H 10.862 L 8.788,6.385 6.713,0 Z"
             style="fill:#ffffff;fill-opacity:1;fill-rule:nonzero;stroke:none"
             id="path1037"
             inkscape:connector-curvature="0" /></g><g
           id="g1039"
           transform="translate(67.4118,270.6857)"><path
             d="m 0,0 5.431,-3.946 -2.074,-6.385 5.431,3.946 5.431,-3.946 -2.075,6.385 L 17.575,0 H 10.862 L 8.788,6.385 6.713,0 Z"
             style="fill:#ffffff;fill-opacity:1;fill-rule:nonzero;stroke:none"
             id="path1041"
             inkscape:connector-curvature="0" /></g><g
           id="g1043"
           transform="translate(105.212,270.6857)"><path
             d="m 0,0 5.431,-3.946 -2.074,-6.385 5.431,3.946 5.431,-3.946 -2.075,6.385 L 17.575,0 H 10.862 L 8.788,6.385 6.713,0 Z"
             style="fill:#ffffff;fill-opacity:1;fill-rule:nonzero;stroke:none"
             id="path1045"
             inkscape:connector-curvature="0" /></g><g
           id="g1047"
           transform="translate(143.0117,270.6857)"><path
             d="m 0,0 5.431,-3.946 -2.074,-6.385 5.431,3.946 5.431,-3.946 -2.075,6.385 L 17.575,0 H 10.862 L 8.788,6.385 6.713,0 Z"
             style="fill:#ffffff;fill-opacity:1;fill-rule:nonzero;stroke:none"
             id="path1049"
             inkscape:connector-curvature="0" /></g><g
           id="g1051"
           transform="translate(180.8115,270.6857)"><path
             d="m 0,0 5.431,-3.946 -2.074,-6.385 5.431,3.946 5.431,-3.946 -2.075,6.385 L 17.575,0 H 10.862 L 8.788,6.385 6.713,0 Z"
             style="fill:#ffffff;fill-opacity:1;fill-rule:nonzero;stroke:none"
             id="path1053"
             inkscape:connector-curvature="0" /></g><g
           id="g1055"
           transform="translate(10.7119,254.4854)"><path
             d="m 0,0 5.431,-3.946 -2.074,-6.385 5.431,3.946 5.431,-3.946 -2.075,6.385 L 17.575,0 H 10.862 L 8.788,6.385 6.713,0 Z"
             style="fill:#ffffff;fill-opacity:1;fill-rule:nonzero;stroke:none"
             id="path1057"
             inkscape:connector-curvature="0" /></g><g
           id="g1059"
           transform="translate(48.5118,254.4854)"><path
             d="m 0,0 5.431,-3.946 -2.074,-6.385 5.431,3.946 5.431,-3.946 -2.075,6.385 L 17.575,0 H 10.862 L 8.788,6.385 6.713,0 Z"
             style="fill:#ffffff;fill-opacity:1;fill-rule:nonzero;stroke:none"
             id="path1061"
             inkscape:connector-curvature="0" /></g><g
           id="g1063"
           transform="translate(86.312,254.4854)"><path
             d="m 0,0 5.431,-3.946 -2.074,-6.385 5.431,3.946 5.431,-3.946 -2.075,6.385 L 17.575,0 H 10.862 L 8.788,6.385 6.713,0 Z"
             style="fill:#ffffff;fill-opacity:1;fill-rule:nonzero;stroke:none"
             id="path1065"
             inkscape:connector-curvature="0" /></g><g
           id="g1067"
           transform="translate(124.1122,254.4854)"><path
             d="m 0,0 5.431,-3.946 -2.074,-6.385 5.431,3.946 5.431,-3.946 -2.075,6.385 L 17.575,0 H 10.862 L 8.788,6.385 6.713,0 Z"
             style="fill:#ffffff;fill-opacity:1;fill-rule:nonzero;stroke:none"
             id="path1069"
             inkscape:connector-curvature="0" /></g><g
           id="g1071"
           transform="translate(161.9118,254.4854)"><path
             d="m 0,0 5.431,-3.946 -2.074,-6.385 5.431,3.946 5.431,-3.946 -2.075,6.385 L 17.575,0 H 10.862 L 8.788,6.385 6.713,0 Z"
             style="fill:#ffffff;fill-opacity:1;fill-rule:nonzero;stroke:none"
             id="path1073"
             inkscape:connector-curvature="0" /></g><g
           id="g1075"
           transform="translate(199.7117,254.4854)"><path
             d="m 0,0 5.431,-3.946 -2.074,-6.385 5.431,3.946 5.431,-3.946 -2.075,6.385 L 17.575,0 H 10.862 L 8.788,6.385 6.713,0 Z"
             style="fill:#ffffff;fill-opacity:1;fill-rule:nonzero;stroke:none"
             id="path1077"
             inkscape:connector-curvature="0" /></g><g
           id="g1079"
           transform="translate(30.078,238.232)"><path
             d="m 0,0 5.431,-3.946 -2.074,-6.385 5.431,3.946 5.431,-3.946 -2.075,6.385 L 17.575,0 H 10.862 L 8.788,6.385 6.713,0 Z"
             style="fill:#ffffff;fill-opacity:1;fill-rule:nonzero;stroke:none"
             id="path1081"
             inkscape:connector-curvature="0" /></g><g
           id="g1083"
           transform="translate(67.8782,238.232)"><path
             d="m 0,0 5.431,-3.946 -2.074,-6.385 5.431,3.946 5.431,-3.946 -2.075,6.385 L 17.575,0 H 10.862 L 8.788,6.385 6.713,0 Z"
             style="fill:#ffffff;fill-opacity:1;fill-rule:nonzero;stroke:none"
             id="path1085"
             inkscape:connector-curvature="0" /></g><g
           id="g1087"
           transform="translate(105.6784,238.232)"><path
             d="m 0,0 5.431,-3.946 -2.074,-6.385 5.431,3.946 5.431,-3.946 -2.075,6.385 L 17.575,0 H 10.862 L 8.788,6.385 6.713,0 Z"
             style="fill:#ffffff;fill-opacity:1;fill-rule:nonzero;stroke:none"
             id="path1089"
             inkscape:connector-curvature="0" /></g><g
           id="g1091"
           transform="translate(143.478,238.232)"><path
             d="m 0,0 5.431,-3.946 -2.074,-6.385 5.431,3.946 5.431,-3.946 -2.075,6.385 L 17.575,0 H 10.862 L 8.788,6.385 6.713,0 Z"
             style="fill:#ffffff;fill-opacity:1;fill-rule:nonzero;stroke:none"
             id="path1093"
             inkscape:connector-curvature="0" /></g><g
           id="g1095"
           transform="translate(181.2779,238.232)"><path
             d="m 0,0 5.431,-3.946 -2.074,-6.385 5.431,3.946 5.431,-3.946 -2.075,6.385 L 17.575,0 H 10.862 L 8.788,6.385 6.713,0 Z"
             style="fill:#ffffff;fill-opacity:1;fill-rule:nonzero;stroke:none"
             id="path1097"
             inkscape:connector-curvature="0" /></g><g
           id="g1099"
           transform="translate(11.2855,222.1677)"><path
             d="m 0,0 5.431,-3.946 -2.074,-6.385 5.431,3.946 5.431,-3.946 -2.075,6.385 L 17.575,0 H 10.862 L 8.788,6.385 6.713,0 Z"
             style="fill:#ffffff;fill-opacity:1;fill-rule:nonzero;stroke:none"
             id="path1101"
             inkscape:connector-curvature="0" /></g><g
           id="g1103"
           transform="translate(49.0854,222.1677)"><path
             d="m 0,0 5.431,-3.946 -2.074,-6.385 5.431,3.946 5.431,-3.946 -2.075,6.385 L 17.575,0 H 10.862 L 8.788,6.385 6.713,0 Z"
             style="fill:#ffffff;fill-opacity:1;fill-rule:nonzero;stroke:none"
             id="path1105"
             inkscape:connector-curvature="0" /></g><g
           id="g1107"
           transform="translate(86.8855,222.1677)"><path
             d="m 0,0 5.431,-3.946 -2.074,-6.385 5.431,3.946 5.431,-3.946 -2.075,6.385 L 17.575,0 H 10.862 L 8.788,6.385 6.713,0 Z"
             style="fill:#ffffff;fill-opacity:1;fill-rule:nonzero;stroke:none"
             id="path1109"
             inkscape:connector-curvature="0" /></g><g
           id="g1111"
           transform="translate(124.6857,222.1677)"><path
             d="m 0,0 5.431,-3.946 -2.074,-6.385 5.431,3.946 5.431,-3.946 -2.075,6.385 L 17.575,0 H 10.862 L 8.788,6.385 6.713,0 Z"
             style="fill:#ffffff;fill-opacity:1;fill-rule:nonzero;stroke:none"
             id="path1113"
             inkscape:connector-curvature="0" /></g><g
           id="g1115"
           transform="translate(162.4854,222.1677)"><path
             d="m 0,0 5.431,-3.946 -2.074,-6.385 5.431,3.946 5.431,-3.946 -2.075,6.385 L 17.575,0 H 10.862 L 8.788,6.385 6.713,0 Z"
             style="fill:#ffffff;fill-opacity:1;fill-rule:nonzero;stroke:none"
             id="path1117"
             inkscape:connector-curvature="0" /></g><g
           id="g1119"
           transform="translate(200.2852,222.1677)"><path
             d="m 0,0 5.431,-3.946 -2.074,-6.385 5.431,3.946 5.431,-3.946 -2.075,6.385 L 17.575,0 H 10.862 L 8.788,6.385 6.713,0 Z"
             style="fill:#ffffff;fill-opacity:1;fill-rule:nonzero;stroke:none"
             id="path1121"
             inkscape:connector-curvature="0" /></g><g
           id="g1123"
           transform="translate(11.6397,190.2803)"><path
             d="m 0,0 5.431,-3.946 -2.074,-6.385 5.431,3.946 5.431,-3.946 -2.075,6.385 L 17.575,0 H 10.862 L 8.788,6.385 6.713,0 Z"
             style="fill:#ffffff;fill-opacity:1;fill-rule:nonzero;stroke:none"
             id="path1125"
             inkscape:connector-curvature="0" /></g><g
           id="g1127"
           transform="translate(49.4396,190.2803)"><path
             d="m 0,0 5.431,-3.946 -2.074,-6.385 5.431,3.946 5.431,-3.946 -2.075,6.385 L 17.575,0 H 10.862 L 8.788,6.385 6.713,0 Z"
             style="fill:#ffffff;fill-opacity:1;fill-rule:nonzero;stroke:none"
             id="path1129"
             inkscape:connector-curvature="0" /></g><g
           id="g1131"
           transform="translate(87.2397,190.2803)"><path
             d="m 0,0 5.431,-3.946 -2.074,-6.385 5.431,3.946 5.431,-3.946 -2.075,6.385 L 17.575,0 H 10.862 L 8.788,6.385 6.713,0 Z"
             style="fill:#ffffff;fill-opacity:1;fill-rule:nonzero;stroke:none"
             id="path1133"
             inkscape:connector-curvature="0" /></g><g
           id="g1135"
           transform="translate(125.0399,190.2803)"><path
             d="m 0,0 5.431,-3.946 -2.074,-6.385 5.431,3.946 5.431,-3.946 -2.075,6.385 L 17.575,0 H 10.862 L 8.788,6.385 6.713,0 Z"
             style="fill:#ffffff;fill-opacity:1;fill-rule:nonzero;stroke:none"
             id="path1137"
             inkscape:connector-curvature="0" /></g><g
           id="g1139"
           transform="translate(162.8396,190.2803)"><path
             d="m 0,0 5.431,-3.946 -2.074,-6.385 5.431,3.946 5.431,-3.946 -2.075,6.385 L 17.575,0 H 10.862 L 8.788,6.385 6.713,0 Z"
             style="fill:#ffffff;fill-opacity:1;fill-rule:nonzero;stroke:none"
             id="path1141"
             inkscape:connector-curvature="0" /></g><g
           id="g1143"
           transform="translate(200.6394,190.2803)"><path
             d="m 0,0 5.431,-3.946 -2.074,-6.385 5.431,3.946 5.431,-3.946 -2.075,6.385 L 17.575,0 H 10.862 L 8.788,6.385 6.713,0 Z"
             style="fill:#ffffff;fill-opacity:1;fill-rule:nonzero;stroke:none"
             id="path1145"
             inkscape:connector-curvature="0" /></g><g
           id="g1147"
           transform="translate(11.178,158.0182)"><path
             d="m 0,0 5.431,-3.946 -2.074,-6.385 5.431,3.946 5.431,-3.946 -2.075,6.385 L 17.575,0 H 10.862 L 8.788,6.385 6.713,0 Z"
             style="fill:#ffffff;fill-opacity:1;fill-rule:nonzero;stroke:none"
             id="path1149"
             inkscape:connector-curvature="0" /></g><g
           id="g1151"
           transform="translate(48.9779,158.0182)"><path
             d="m 0,0 5.431,-3.946 -2.074,-6.385 5.431,3.946 5.431,-3.946 -2.075,6.385 L 17.575,0 H 10.862 L 8.788,6.385 6.713,0 Z"
             style="fill:#ffffff;fill-opacity:1;fill-rule:nonzero;stroke:none"
             id="path1153"
             inkscape:connector-curvature="0" /></g><g
           id="g1155"
           transform="translate(86.778,158.0182)"><path
             d="m 0,0 5.431,-3.946 -2.074,-6.385 5.431,3.946 5.431,-3.946 -2.075,6.385 L 17.575,0 H 10.862 L 8.788,6.385 6.713,0 Z"
             style="fill:#ffffff;fill-opacity:1;fill-rule:nonzero;stroke:none"
             id="path1157"
             inkscape:connector-curvature="0" /></g><g
           id="g1159"
           transform="translate(124.5782,158.0182)"><path
             d="m 0,0 5.431,-3.946 -2.074,-6.385 5.431,3.946 5.431,-3.946 -2.075,6.385 L 17.575,0 H 10.862 L 8.788,6.385 6.713,0 Z"
             style="fill:#ffffff;fill-opacity:1;fill-rule:nonzero;stroke:none"
             id="path1161"
             inkscape:connector-curvature="0" /></g><g
           id="g1163"
           transform="translate(162.3779,158.0182)"><path
             d="m 0,0 5.431,-3.946 -2.074,-6.385 5.431,3.946 5.431,-3.946 -2.075,6.385 L 17.575,0 H 10.862 L 8.788,6.385 6.713,0 Z"
             style="fill:#ffffff;fill-opacity:1;fill-rule:nonzero;stroke:none"
             id="path1165"
             inkscape:connector-curvature="0" /></g><g
           id="g1167"
           transform="translate(200.1777,158.0182)"><path
             d="m 0,0 5.431,-3.946 -2.074,-6.385 5.431,3.946 5.431,-3.946 -2.075,6.385 L 17.575,0 H 10.862 L 8.788,6.385 6.713,0 Z"
             style="fill:#ffffff;fill-opacity:1;fill-rule:nonzero;stroke:none"
             id="path1169"
             inkscape:connector-curvature="0" /></g><g
           id="g1171"
           transform="translate(30.1903,206.3841)"><path
             d="m 0,0 5.431,-3.946 -2.074,-6.385 5.431,3.946 5.431,-3.946 -2.075,6.385 L 17.575,0 H 10.862 L 8.788,6.385 6.713,0 Z"
             style="fill:#ffffff;fill-opacity:1;fill-rule:nonzero;stroke:none"
             id="path1173"
             inkscape:connector-curvature="0" /></g><g
           id="g1175"
           transform="translate(67.9904,206.3841)"><path
             d="m 0,0 5.431,-3.946 -2.074,-6.385 5.431,3.946 5.431,-3.946 -2.075,6.385 L 17.575,0 H 10.862 L 8.788,6.385 6.713,0 Z"
             style="fill:#ffffff;fill-opacity:1;fill-rule:nonzero;stroke:none"
             id="path1177"
             inkscape:connector-curvature="0" /></g><g
           id="g1179"
           transform="translate(105.7906,206.3841)"><path
             d="m 0,0 5.431,-3.946 -2.074,-6.385 5.431,3.946 5.431,-3.946 -2.075,6.385 L 17.575,0 H 10.862 L 8.788,6.385 6.713,0 Z"
             style="fill:#ffffff;fill-opacity:1;fill-rule:nonzero;stroke:none"
             id="path1181"
             inkscape:connector-curvature="0" /></g><g
           id="g1183"
           transform="translate(143.5903,206.3841)"><path
             d="m 0,0 5.431,-3.946 -2.074,-6.385 5.431,3.946 5.431,-3.946 -2.075,6.385 L 17.575,0 H 10.862 L 8.788,6.385 6.713,0 Z"
             style="fill:#ffffff;fill-opacity:1;fill-rule:nonzero;stroke:none"
             id="path1185"
             inkscape:connector-curvature="0" /></g><g
           id="g1187"
           transform="translate(181.3901,206.3841)"><path
             d="m 0,0 5.431,-3.946 -2.074,-6.385 5.431,3.946 5.431,-3.946 -2.075,6.385 L 17.575,0 H 10.862 L 8.788,6.385 6.713,0 Z"
             style="fill:#ffffff;fill-opacity:1;fill-rule:nonzero;stroke:none"
             id="path1189"
             inkscape:connector-curvature="0" /></g><g
           id="g1191"
           transform="translate(30.0784,174.1721)"><path
             d="m 0,0 5.431,-3.946 -2.074,-6.385 5.431,3.946 5.431,-3.946 -2.075,6.385 L 17.575,0 H 10.862 L 8.788,6.385 6.713,0 Z"
             style="fill:#ffffff;fill-opacity:1;fill-rule:nonzero;stroke:none"
             id="path1193"
             inkscape:connector-curvature="0" /></g><g
           id="g1195"
           transform="translate(67.8785,174.1721)"><path
             d="m 0,0 5.431,-3.946 -2.074,-6.385 5.431,3.946 5.431,-3.946 -2.075,6.385 L 17.575,0 H 10.862 L 8.788,6.385 6.713,0 Z"
             style="fill:#ffffff;fill-opacity:1;fill-rule:nonzero;stroke:none"
             id="path1197"
             inkscape:connector-curvature="0" /></g><g
           id="g1199"
           transform="translate(105.6787,174.1721)"><path
             d="m 0,0 5.431,-3.946 -2.074,-6.385 5.431,3.946 5.431,-3.946 -2.075,6.385 L 17.575,0 H 10.862 L 8.788,6.385 6.713,0 Z"
             style="fill:#ffffff;fill-opacity:1;fill-rule:nonzero;stroke:none"
             id="path1201"
             inkscape:connector-curvature="0" /></g><g
           id="g1203"
           transform="translate(143.4784,174.1721)"><path
             d="m 0,0 5.431,-3.946 -2.074,-6.385 5.431,3.946 5.431,-3.946 -2.075,6.385 L 17.575,0 H 10.862 L 8.788,6.385 6.713,0 Z"
             style="fill:#ffffff;fill-opacity:1;fill-rule:nonzero;stroke:none"
             id="path1205"
             inkscape:connector-curvature="0" /></g><g
           id="g1207"
           transform="translate(181.2782,174.1721)"><path
             d="m 0,0 5.431,-3.946 -2.074,-6.385 5.431,3.946 5.431,-3.946 -2.075,6.385 L 17.575,0 H 10.862 L 8.788,6.385 6.713,0 Z"
             style="fill:#ffffff;fill-opacity:1;fill-rule:nonzero;stroke:none"
             id="path1209"
             inkscape:connector-curvature="0" /></g></g></g></g></svg>