<?xml version="1.0" encoding="UTF-8" standalone="no"?>
<!-- Created with Inkscape (http://www.inkscape.org/) -->

<svg
   xmlns:dc="http://purl.org/dc/elements/1.1/"
   xmlns:cc="http://creativecommons.org/ns#"
   xmlns:rdf="http://www.w3.org/1999/02/22-rdf-syntax-ns#"
   xmlns:svg="http://www.w3.org/2000/svg"
   xmlns="http://www.w3.org/2000/svg"
   xmlns:sodipodi="http://sodipodi.sourceforge.net/DTD/sodipodi-0.dtd"
   xmlns:inkscape="http://www.inkscape.org/namespaces/inkscape"
   version="1.1"
   id="svg815"
   xml:space="preserve"
   width="400"
   height="400"
   viewBox="0 0 400 400"
   sodipodi:docname="uruguay-flag-round.svg"
   inkscape:version="0.92.3 (2405546, 2018-03-11)"><metadata
     id="metadata821"><rdf:RDF><cc:Work
         rdf:about=""><dc:format>image/svg+xml</dc:format><dc:type
           rdf:resource="http://purl.org/dc/dcmitype/StillImage" /><dc:title></dc:title></cc:Work></rdf:RDF></metadata><defs
     id="defs819"><clipPath
       clipPathUnits="userSpaceOnUse"
       id="clipPath831"><path
         d="M 150,300 C 67.157,300 0,232.843 0,150 v 0 C 0,67.157 67.157,0 150,0 v 0 c 82.843,0 150,67.157 150,150 v 0 c 0,82.843 -67.157,150 -150,150 z"
         id="path829"
         inkscape:connector-curvature="0" /></clipPath></defs><sodipodi:namedview
     pagecolor="#ffffff"
     bordercolor="#666666"
     borderopacity="1"
     objecttolerance="10"
     gridtolerance="10"
     guidetolerance="10"
     inkscape:pageopacity="0"
     inkscape:pageshadow="2"
     inkscape:window-width="1920"
     inkscape:window-height="1017"
     id="namedview817"
     showgrid="false"
     inkscape:zoom="2.12"
     inkscape:cx="200"
     inkscape:cy="200"
     inkscape:window-x="-8"
     inkscape:window-y="-8"
     inkscape:window-maximized="1"
     inkscape:current-layer="g823" /><g
     id="g823"
     inkscape:groupmode="layer"
     inkscape:label="uruguay-flag-round"
     transform="matrix(1.3333333,0,0,-1.3333333,0,400)"><g
       id="g825"><g
         id="g827"
         clip-path="url(#clipPath831)"><path
           d="M 0,300 H 450 V 0 H 0 Z"
           style="fill:#ffffff;fill-opacity:1;fill-rule:nonzero;stroke:none"
           id="path833"
           inkscape:connector-curvature="0" /><path
           d="M 166.667,266.667 H 450 V 233.333 H 166.667 Z"
           style="fill:#0038a8;fill-opacity:1;fill-rule:nonzero;stroke:none"
           id="path835"
           inkscape:connector-curvature="0" /><path
           d="M 166.667,200 H 450 V 166.667 H 166.667 Z"
           style="fill:#0038a8;fill-opacity:1;fill-rule:nonzero;stroke:none"
           id="path837"
           inkscape:connector-curvature="0" /><path
           d="M 0,133.333 H 450 V 100 H 0 Z"
           style="fill:#0038a8;fill-opacity:1;fill-rule:nonzero;stroke:none"
           id="path839"
           inkscape:connector-curvature="0" /><path
           d="M 0,66.667 H 450 V 33.334 H 0 Z"
           style="fill:#0038a8;fill-opacity:1;fill-rule:nonzero;stroke:none"
           id="path841"
           inkscape:connector-curvature="0" /><g
           id="g843"
           transform="translate(79.5596,200.3701)"><path
             d="m 0,0 5.517,-8.238 c -22.671,-16.407 -8.829,-26.109 -24.896,-31.36 9.993,9.751 -1.573,10.574 6.846,30.899"
             style="fill:#fcd116;fill-opacity:1;fill-rule:nonzero;stroke:#000000;stroke-width:0.30000001;stroke-linecap:square;stroke-linejoin:miter;stroke-miterlimit:20;stroke-dasharray:none;stroke-opacity:1"
             id="path845"
             inkscape:connector-curvature="0" /></g><g
           id="g847"
           transform="translate(75.6157,198.0351)"><path
             d="M 0,0 C -12.508,-20.616 -4.305,-31.952 -15.435,-37.263"
             style="fill:none;stroke:#000000;stroke-width:0.30000001;stroke-linecap:butt;stroke-linejoin:miter;stroke-miterlimit:20;stroke-dasharray:none;stroke-opacity:1"
             id="path849"
             inkscape:connector-curvature="0" /></g><g
           id="g851"
           transform="translate(83.333,216.6665)"><path
             d="M 0,0 H 11 L 0,-60.5 -11,0 H 0 v -60.5"
             style="fill:#fcd116;fill-opacity:1;fill-rule:nonzero;stroke:#000000;stroke-width:0.30000001;stroke-linecap:butt;stroke-linejoin:miter;stroke-miterlimit:20;stroke-dasharray:none;stroke-opacity:1"
             id="path853"
             inkscape:connector-curvature="0" /></g><g
           id="g855"
           transform="translate(69.1416,207.8115)"><path
             d="m 0,0 -1.924,-9.727 c -27.632,4.43 -24.705,-12.217 -39.779,-4.57 13.961,-0.171 6.364,8.589 26.689,17.008"
             style="fill:#fcd116;fill-opacity:1;fill-rule:nonzero;stroke:#000000;stroke-width:0.30000001;stroke-linecap:square;stroke-linejoin:miter;stroke-miterlimit:20;stroke-dasharray:none;stroke-opacity:1"
             id="path857"
             inkscape:connector-curvature="0" /></g><g
           id="g859"
           transform="translate(64.7017,208.9492)"><path
             d="M 0,0 C -23.422,-5.733 -25.637,-19.549 -37.263,-15.435"
             style="fill:none;stroke:#000000;stroke-width:0.30000001;stroke-linecap:butt;stroke-linejoin:miter;stroke-miterlimit:20;stroke-dasharray:none;stroke-opacity:1"
             id="path861"
             inkscape:connector-curvature="0" /></g><g
           id="g863"
           transform="translate(83.333,216.6665)"><path
             d="M 0,0 7.778,-7.778 -42.78,-42.78 -7.778,7.778 0,0 -42.78,-42.78"
             style="fill:#fcd116;fill-opacity:1;fill-rule:nonzero;stroke:#000000;stroke-width:0.30000001;stroke-linecap:butt;stroke-linejoin:miter;stroke-miterlimit:20;stroke-dasharray:none;stroke-opacity:1"
             id="path865"
             inkscape:connector-curvature="0" /></g><g
           id="g867"
           transform="translate(67.0366,220.4399)"><path
             d="m 0,0 -8.238,-5.517 c -16.407,22.671 -26.109,8.83 -31.36,24.896 9.752,-9.992 10.574,1.573 30.899,-6.846"
             style="fill:#fcd116;fill-opacity:1;fill-rule:nonzero;stroke:#000000;stroke-width:0.30000001;stroke-linecap:square;stroke-linejoin:miter;stroke-miterlimit:20;stroke-dasharray:none;stroke-opacity:1"
             id="path869"
             inkscape:connector-curvature="0" /></g><g
           id="g871"
           transform="translate(64.7017,224.3838)"><path
             d="M 0,0 C -20.616,12.508 -31.951,4.305 -37.263,15.435"
             style="fill:none;stroke:#000000;stroke-width:0.30000001;stroke-linecap:butt;stroke-linejoin:miter;stroke-miterlimit:20;stroke-dasharray:none;stroke-opacity:1"
             id="path873"
             inkscape:connector-curvature="0" /></g><g
           id="g875"
           transform="translate(83.333,216.6665)"><path
             d="M 0,0 V -11 L -60.5,0 0,11 V 0 h -60.5"
             style="fill:#fcd116;fill-opacity:1;fill-rule:nonzero;stroke:#000000;stroke-width:0.30000001;stroke-linecap:butt;stroke-linejoin:miter;stroke-miterlimit:20;stroke-dasharray:none;stroke-opacity:1"
             id="path877"
             inkscape:connector-curvature="0" /></g><g
           id="g879"
           transform="translate(74.4785,230.8584)"><path
             d="m 0,0 -9.727,1.924 c 4.43,27.632 -12.217,24.705 -4.571,39.779 -0.17,-13.961 8.59,-6.364 17.008,-26.69"
             style="fill:#fcd116;fill-opacity:1;fill-rule:nonzero;stroke:#000000;stroke-width:0.30000001;stroke-linecap:square;stroke-linejoin:miter;stroke-miterlimit:20;stroke-dasharray:none;stroke-opacity:1"
             id="path881"
             inkscape:connector-curvature="0" /></g><g
           id="g883"
           transform="translate(75.6157,235.2983)"><path
             d="M 0,0 C -5.733,23.422 -19.549,25.637 -15.435,37.263"
             style="fill:none;stroke:#000000;stroke-width:0.30000001;stroke-linecap:butt;stroke-linejoin:miter;stroke-miterlimit:20;stroke-dasharray:none;stroke-opacity:1"
             id="path885"
             inkscape:connector-curvature="0" /></g><g
           id="g887"
           transform="translate(83.333,216.6665)"><path
             d="M 0,0 -7.778,-7.778 -42.78,42.78 7.778,7.778 0,0 -42.78,42.78"
             style="fill:#fcd116;fill-opacity:1;fill-rule:nonzero;stroke:#000000;stroke-width:0.30000001;stroke-linecap:butt;stroke-linejoin:miter;stroke-miterlimit:20;stroke-dasharray:none;stroke-opacity:1"
             id="path889"
             inkscape:connector-curvature="0" /></g><g
           id="g891"
           transform="translate(87.1069,232.9629)"><path
             d="M 0,0 -5.518,8.238 C 17.153,24.645 3.313,34.347 19.378,39.598 9.386,29.847 20.952,29.025 12.533,8.699"
             style="fill:#fcd116;fill-opacity:1;fill-rule:nonzero;stroke:#000000;stroke-width:0.30000001;stroke-linecap:square;stroke-linejoin:miter;stroke-miterlimit:20;stroke-dasharray:none;stroke-opacity:1"
             id="path893"
             inkscape:connector-curvature="0" /></g><g
           id="g895"
           transform="translate(91.0508,235.2983)"><path
             d="M 0,0 C 12.508,20.616 4.305,31.951 15.435,37.263"
             style="fill:none;stroke:#000000;stroke-width:0.30000001;stroke-linecap:butt;stroke-linejoin:miter;stroke-miterlimit:20;stroke-dasharray:none;stroke-opacity:1"
             id="path897"
             inkscape:connector-curvature="0" /></g><g
           id="g899"
           transform="translate(83.333,216.6665)"><path
             d="M 0,0 H -11 L 0,60.5 11,0 H 0 v 60.5"
             style="fill:#fcd116;fill-opacity:1;fill-rule:nonzero;stroke:#000000;stroke-width:0.30000001;stroke-linecap:butt;stroke-linejoin:miter;stroke-miterlimit:20;stroke-dasharray:none;stroke-opacity:1"
             id="path901"
             inkscape:connector-curvature="0" /></g><g
           id="g903"
           transform="translate(97.5249,225.5215)"><path
             d="M 0,0 1.924,9.727 C 29.556,5.297 26.629,21.944 41.703,14.297 27.742,14.468 35.339,5.708 15.014,-2.711"
             style="fill:#fcd116;fill-opacity:1;fill-rule:nonzero;stroke:#000000;stroke-width:0.30000001;stroke-linecap:square;stroke-linejoin:miter;stroke-miterlimit:20;stroke-dasharray:none;stroke-opacity:1"
             id="path905"
             inkscape:connector-curvature="0" /></g><g
           id="g907"
           transform="translate(101.9649,224.3838)"><path
             d="M 0,0 C 23.422,5.733 25.637,19.549 37.263,15.435"
             style="fill:none;stroke:#000000;stroke-width:0.30000001;stroke-linecap:butt;stroke-linejoin:miter;stroke-miterlimit:20;stroke-dasharray:none;stroke-opacity:1"
             id="path909"
             inkscape:connector-curvature="0" /></g><g
           id="g911"
           transform="translate(83.333,216.6665)"><path
             d="M 0,0 -7.778,7.778 42.78,42.78 7.778,-7.778 0,0 42.78,42.78"
             style="fill:#fcd116;fill-opacity:1;fill-rule:nonzero;stroke:#000000;stroke-width:0.30000001;stroke-linecap:butt;stroke-linejoin:miter;stroke-miterlimit:20;stroke-dasharray:none;stroke-opacity:1"
             id="path913"
             inkscape:connector-curvature="0" /></g><g
           id="g915"
           transform="translate(99.6294,212.893)"><path
             d="m 0,0 8.239,5.517 c 16.406,-22.671 26.108,-8.83 31.36,-24.896 -9.752,9.993 -10.574,-1.573 -30.899,6.846"
             style="fill:#fcd116;fill-opacity:1;fill-rule:nonzero;stroke:#000000;stroke-width:0.30000001;stroke-linecap:square;stroke-linejoin:miter;stroke-miterlimit:20;stroke-dasharray:none;stroke-opacity:1"
             id="path917"
             inkscape:connector-curvature="0" /></g><g
           id="g919"
           transform="translate(101.9649,208.9492)"><path
             d="M 0,0 C 20.616,-12.508 31.951,-4.305 37.263,-15.435"
             style="fill:none;stroke:#000000;stroke-width:0.30000001;stroke-linecap:butt;stroke-linejoin:miter;stroke-miterlimit:20;stroke-dasharray:none;stroke-opacity:1"
             id="path921"
             inkscape:connector-curvature="0" /></g><g
           id="g923"
           transform="translate(83.333,216.6665)"><path
             d="M 0,0 V 11 L 60.5,0 0,-11 V 0 h 60.5"
             style="fill:#fcd116;fill-opacity:1;fill-rule:nonzero;stroke:#000000;stroke-width:0.30000001;stroke-linecap:butt;stroke-linejoin:miter;stroke-miterlimit:20;stroke-dasharray:none;stroke-opacity:1"
             id="path925"
             inkscape:connector-curvature="0" /></g><g
           id="g927"
           transform="translate(92.188,202.4751)"><path
             d="m 0,0 9.727,-1.924 c -4.43,-27.632 12.217,-24.705 4.57,-39.779 0.171,13.961 -8.589,6.364 -17.008,26.689"
             style="fill:#fcd116;fill-opacity:1;fill-rule:nonzero;stroke:#000000;stroke-width:0.30000001;stroke-linecap:square;stroke-linejoin:miter;stroke-miterlimit:20;stroke-dasharray:none;stroke-opacity:1"
             id="path929"
             inkscape:connector-curvature="0" /></g><g
           id="g931"
           transform="translate(91.0508,198.0351)"><path
             d="M 0,0 C 5.733,-23.422 19.549,-25.637 15.435,-37.263"
             style="fill:none;stroke:#000000;stroke-width:0.30000001;stroke-linecap:butt;stroke-linejoin:miter;stroke-miterlimit:20;stroke-dasharray:none;stroke-opacity:1"
             id="path933"
             inkscape:connector-curvature="0" /></g><g
           id="g935"
           transform="translate(83.333,216.6665)"><path
             d="M 0,0 7.778,7.778 42.78,-42.78 -7.778,-7.778 0,0 42.78,-42.78"
             style="fill:#fcd116;fill-opacity:1;fill-rule:nonzero;stroke:#000000;stroke-width:0.30000001;stroke-linecap:butt;stroke-linejoin:miter;stroke-miterlimit:20;stroke-dasharray:none;stroke-opacity:1"
             id="path937"
             inkscape:connector-curvature="0" /></g><g
           id="g939"
           transform="translate(83.333,236.833)"><path
             d="m 0,0 c 11.138,0 20.167,-9.029 20.167,-20.166 0,-11.138 -9.029,-20.167 -20.167,-20.167 -11.138,0 -20.167,9.029 -20.167,20.167 C -20.167,-9.029 -11.138,0 0,0"
             style="fill:#fcd116;fill-opacity:1;fill-rule:nonzero;stroke:none"
             id="path941"
             inkscape:connector-curvature="0" /></g><g
           id="g943"
           transform="translate(83.333,236.833)"><path
             d="m 0,0 c 11.138,0 20.167,-9.029 20.167,-20.166 0,-11.138 -9.029,-20.167 -20.167,-20.167 -11.138,0 -20.167,9.029 -20.167,20.167 C -20.167,-9.029 -11.138,0 0,0 Z"
             style="fill:none;stroke:#000000;stroke-width:0.30000001;stroke-linecap:butt;stroke-linejoin:miter;stroke-miterlimit:20;stroke-dasharray:none;stroke-opacity:1"
             id="path945"
             inkscape:connector-curvature="0" /></g><g
           id="g947"
           transform="translate(92.8667,223.083)"><path
             d="m 0,0 c 1.283,-1.1 0.183,-3.483 -1.1,-3.483 -1.283,0 -3.667,2.2 -2.567,3.667 M 5.316,1.65 C 4.033,0.184 3.3,2.75 -1.284,2.75 -5.867,2.75 -6.6,0 -7.333,0.55 -8.067,1.1 -3.483,4.4 -2.017,4.584 -0.55,4.767 3.667,3.3 5.316,1.65"
             style="fill:#000000;fill-opacity:1;fill-rule:nonzero;stroke:none"
             id="path949"
             inkscape:connector-curvature="0" /></g><g
           id="g951"
           transform="translate(87.3667,220.8833)"><path
             d="m 0,0 c 0.733,1.1 1.65,-1.1 3.667,-1.1 2.016,0 3.116,0.55 4.399,1.467 C 9.35,1.283 6.233,-1.834 4.216,-1.834 2.2,-1.834 -0.55,-0.733 0,0 m -0.55,0.55 c 0.183,2.2 2.016,2.567 4.95,2.567 2.933,0 4.217,-2.201 5.316,-2.75 C 8.433,0.367 7.333,2.2 4.4,2.2 1.466,2.2 1.466,2.2 -0.55,0.367"
             style="fill:#000000;fill-opacity:1;fill-rule:nonzero;stroke:none"
             id="path953"
             inkscape:connector-curvature="0" /></g><g
           id="g955"
           transform="translate(83.333,211.1665)"><path
             d="m 0,0 c 1.284,0 1.65,0.916 3.117,0.916 1.466,0 3.483,-0.549 4.4,-1.283 C 7.7,-0.55 6.967,1.1 5.5,1.283 4.034,1.467 4.583,3.85 2.934,4.217 2.934,3.483 3.483,3.666 3.667,2.567 3.667,1.65 2.017,1.65 1.65,2.567 2.017,1.1 0.917,1.1 0,1.1 m 0,-7.883 c 4.583,0 3.85,0.916 9.9,3.483 C 5.5,-3.85 4.583,-5.316 0,-5.316 h -0.917 m 11.55,0.366 c -0.733,1.283 -0.55,0.917 -2.016,2.933 1.466,-1.1 1.833,-1.65 2.016,-2.933 M 0,-2.383 c 1.1,0 1.467,0.366 2.934,0.366 C 4.4,-2.017 7.883,-4.033 9.9,-3.3 5.684,-4.95 7.333,-3.85 0,-3.85 H -0.917 M 10.267,8.617 c 2.383,1.283 0.917,3.116 0,3.483 0.366,-0.367 1.833,-2.2 0,-3.483"
             style="fill:#000000;fill-opacity:1;fill-rule:nonzero;stroke:none"
             id="path957"
             inkscape:connector-curvature="0" /></g><g
           id="g959"
           transform="translate(73.7998,223.083)"><path
             d="m 0,0 c -1.283,-1.1 -0.183,-3.483 1.1,-3.483 1.283,0 3.667,2.2 2.567,3.667 M -5.316,1.65 C -4.033,0.184 -3.3,2.75 1.283,2.75 5.867,2.75 6.6,0 7.333,0.55 8.067,1.1 3.483,4.4 2.017,4.584 0.55,4.767 -3.667,3.3 -5.316,1.65"
             style="fill:#000000;fill-opacity:1;fill-rule:nonzero;stroke:none"
             id="path961"
             inkscape:connector-curvature="0" /></g><g
           id="g963"
           transform="translate(79.2998,220.8833)"><path
             d="m 0,0 c -0.733,1.1 -1.65,-1.1 -3.667,-1.1 -2.016,0 -3.116,0.55 -4.399,1.467 -1.284,0.916 1.833,-2.201 3.849,-2.201 C -2.2,-1.834 0.55,-0.733 0,0 m 0.55,0.55 c -0.183,2.2 -2.017,2.567 -4.95,2.567 -2.933,0 -4.217,-2.201 -5.317,-2.75 1.284,0 2.384,1.833 5.317,1.833 2.933,0 2.933,0 4.95,-1.833"
             style="fill:#000000;fill-opacity:1;fill-rule:nonzero;stroke:none"
             id="path965"
             inkscape:connector-curvature="0" /></g><g
           id="g967"
           transform="translate(83.333,211.1665)"><path
             d="m 0,0 c -1.283,0 -1.65,0.916 -3.117,0.916 -1.466,0 -3.483,-0.549 -4.4,-1.283 -0.183,-0.183 0.551,1.467 2.017,1.65 1.467,0.184 0.917,2.567 2.567,2.934 0,-0.734 -0.55,-0.551 -0.734,-1.65 0,-0.917 1.65,-0.917 2.017,0 C -2.017,1.1 -0.917,1.1 0,1.1 m 0,-7.883 c -4.583,0 -3.85,0.916 -9.9,3.483 4.4,-0.55 5.317,-2.016 9.9,-2.016 h 0.917 m -11.55,0.366 c 0.733,1.283 0.55,0.917 2.016,2.933 -1.466,-1.1 -1.833,-1.65 -2.016,-2.933 M 0,-2.383 c -1.1,0 -1.466,0.366 -2.933,0.366 -1.467,0 -4.95,-2.016 -6.967,-1.283 4.217,-1.65 2.567,-0.55 9.9,-0.55 H 0.917 M -10.267,8.617 c -2.383,1.283 -0.916,3.116 0,3.483 -0.366,-0.367 -1.833,-2.2 0,-3.483"
             style="fill:#000000;fill-opacity:1;fill-rule:nonzero;stroke:none"
             id="path969"
             inkscape:connector-curvature="0" /></g><g
           id="g971"
           transform="translate(83.333,202.7334)"><path
             d="M 0,0 C -0.917,0 -3.3,-0.55 0,-0.55 3.3,-0.55 0.917,0 0,0"
             style="fill:#000000;fill-opacity:1;fill-rule:nonzero;stroke:none"
             id="path973"
             inkscape:connector-curvature="0" /></g></g></g></g></svg>