<?xml version="1.0" encoding="UTF-8" standalone="no"?>
<svg
   xmlns:dc="http://purl.org/dc/elements/1.1/"
   xmlns:cc="http://creativecommons.org/ns#"
   xmlns:rdf="http://www.w3.org/1999/02/22-rdf-syntax-ns#"
   xmlns:svg="http://www.w3.org/2000/svg"
   xmlns="http://www.w3.org/2000/svg"
   xmlns:sodipodi="http://sodipodi.sourceforge.net/DTD/sodipodi-0.dtd"
   xmlns:inkscape="http://www.inkscape.org/namespaces/inkscape"
   width="2500"
   height="1733"
   viewBox="-18.458 6.58 191.151 132.49"
   version="1.1"
   id="svg12"
   sodipodi:docname="mysql_logo.svg"
   inkscape:version="0.92.3 (2405546, 2018-03-11)">
  <metadata
     id="metadata18">
    <rdf:RDF>
      <cc:Work
         rdf:about="">
        <dc:format>image/svg+xml</dc:format>
        <dc:type
           rdf:resource="http://purl.org/dc/dcmitype/StillImage" />
      </cc:Work>
    </rdf:RDF>
  </metadata>
  <defs
     id="defs16" />
  <sodipodi:namedview
     pagecolor="#ffffff"
     bordercolor="#666666"
     borderopacity="1"
     objecttolerance="10"
     gridtolerance="10"
     guidetolerance="10"
     inkscape:pageopacity="0"
     inkscape:pageshadow="2"
     inkscape:window-width="1920"
     inkscape:window-height="1017"
     id="namedview14"
     showgrid="false"
     inkscape:zoom="0.13618003"
     inkscape:cx="1250"
     inkscape:cy="866.5"
     inkscape:window-x="-8"
     inkscape:window-y="-8"
     inkscape:window-maximized="1"
     inkscape:current-layer="svg12" />
  <path
     d="M-18.458 6.58h191.151v132.49H-18.458V6.58z"
     fill="none"
     id="path2" />
  <path
     d="M 32.254084,120.97929 H 25.627559 C 25.393229,109.92893 24.747864,99.540216 23.692743,89.805531 H 23.63383 L 13.544869,120.97929 H 8.4997531 L -1.5290273,89.805531 h -0.057618 c -0.7439641,9.346308 -1.2126222,19.737559 -1.4072568,31.173759 h -6.0400644 c 0.3892683,-13.90688 1.3675611,-26.944643 2.9310373,-39.114578 H 2.1101185 L 11.66896,110.60575 h 0.0589 l 9.617744,-28.741038 h 7.858355 c 1.720976,14.254765 2.737681,27.293808 3.050122,39.114578 M 60.992073,92.120601 c -2.697988,14.464769 -6.257744,24.974929 -10.675427,31.535569 -3.441951,5.05015 -7.212987,7.57774 -11.319513,7.57774 -1.094816,0 -2.445732,-0.32638 -4.046341,-0.9741 v -3.48779 c 0.782378,0.11133 1.700488,0.17458 2.755609,0.17458 1.918172,0 3.45988,-0.5212 4.635366,-1.56614 1.405976,-1.27267 2.108964,-2.70345 2.108964,-4.28605 0,-1.08543 -0.548049,-3.30436 -1.641585,-6.66437 L 35.537255,92.119336 h 6.51 l 5.219269,16.686224 c 1.172927,3.78886 1.662074,6.43412 1.466158,7.94082 2.854208,-7.53094 4.847928,-15.74248 5.98372,-24.628309 h 6.275671 z"
     id="path4"
     inkscape:connector-curvature="0"
     style="fill:#5d87a1;stroke-width:1.27275372" />
  <path
     d="M 149.19848,120.97929 H 130.37531 V 81.864712 h 6.33201 v 34.299738 h 12.49116 z m -23.75049,0.94501 -7.27829,-3.54852 c 0.64537,-0.52373 1.26255,-1.09048 1.81829,-1.74706 3.09365,-3.59026 4.63665,-8.89973 4.63665,-15.93223 0,-12.940365 -5.13987,-19.413709 -15.42348,-19.413709 -5.04255,0 -8.97622,1.642055 -11.789453,4.927432 -3.091095,3.592787 -4.634082,8.883295 -4.634082,15.877837 0,6.87564 1.36756,11.91947 4.103962,15.11881 2.503356,2.89828 6.276953,4.3493 11.323363,4.3493 1.88231,0 3.60969,-0.22772 5.18341,-0.68693 l 9.4756,5.4499 z m -23.57761,-8.77198 c -1.60318,-2.54784 -2.404764,-6.63906 -2.404764,-12.27999 0,-9.84854 3.028354,-14.778503 9.091454,-14.778503 3.16921,0 5.49202,1.179042 6.97738,3.532064 1.60061,2.551639 2.40604,6.606177 2.40604,12.168669 0,9.92951 -3.0309,14.8949 -9.09017,14.8949 -3.1705,0.001 -5.4933,-1.17399 -6.97994,-3.53714 m -11.852208,-3.01464 c 0,3.31699 -1.231828,6.03815 -3.692926,8.16979 -2.463659,2.12278 -5.767317,3.18671 -9.907135,3.18671 -3.872195,0 -7.626586,-1.22206 -11.26061,-3.65352 l 1.701769,-3.35875 c 3.126951,1.54718 5.958109,2.31634 8.499878,2.31634 2.385548,0 4.249938,-0.52248 5.602134,-1.55857 1.350915,-1.03988 2.156341,-2.4985 2.156341,-4.34296 0,-2.32394 -1.640303,-4.31009 -4.649451,-5.97365 -2.774817,-1.50543 -8.324452,-4.65292 -8.324452,-4.65292 -3.007866,-2.165786 -4.513719,-4.490977 -4.513719,-8.321597 0,-3.170257 1.122987,-5.729485 3.370244,-7.67642 2.249816,-1.954528 5.152684,-2.928629 8.71116,-2.928629 3.674999,0 7.015792,0.972836 10.024938,2.898266 l -1.526341,3.360017 c -2.57378,-1.080368 -5.114269,-1.62055 -7.620184,-1.62055 -2.029572,0 -3.596889,0.481989 -4.686585,1.449764 -1.098659,0.963982 -1.776036,2.197421 -1.776036,3.71044 0,2.312541 1.674879,4.323996 4.765975,6.020448 2.811952,1.507961 8.49988,4.709841 8.49988,4.709841 3.084695,2.16201 4.62512,4.46568 4.62512,8.26595"
     id="path6"
     inkscape:connector-curvature="0"
     style="fill:#f8981d;stroke-width:1.27275372" />
  <path
     d="m 157.14775,68.763688 c -3.82866,-0.09614 -6.79299,0.284638 -9.28098,1.324524 -0.71836,0.283375 -1.86055,0.283375 -1.96042,1.180306 0.388,0.379521 0.4328,0.991812 0.76957,1.515549 0.57366,0.945006 1.57372,2.216396 2.4867,2.87929 1.00263,0.75904 2.00909,1.510489 3.06422,2.172118 1.86055,1.137295 3.9695,1.798925 5.78268,2.932425 1.0564,0.659098 2.10639,1.511754 3.16408,2.221456 0.51989,0.378255 0.85281,0.991811 1.52763,1.228379 v -0.144218 c -0.33806,-0.425063 -0.43408,-1.039884 -0.76574,-1.513018 l -1.43672,-1.368802 c -1.38803,-1.841937 -3.11284,-3.449836 -4.97338,-4.770564 -1.53147,-1.042416 -4.88123,-2.459289 -5.50227,-4.20255 l -0.0972,-0.09614 c 1.05256,-0.09741 2.30103,-0.474397 3.30109,-0.764098 1.6275,-0.423797 3.11159,-0.327652 4.78134,-0.75145 0.76828,-0.18976 1.53019,-0.427592 2.30105,-0.661629 v -0.426328 c -0.86561,-0.851389 -1.48282,-1.982359 -2.39324,-2.786941 -2.43549,-2.078503 -5.1194,-4.111464 -7.89293,-5.812978 -1.48536,-0.947534 -3.39586,-1.557296 -4.97725,-2.363143 -0.56982,-0.284641 -1.53018,-0.425061 -1.86568,-0.898198 -0.85792,-1.039882 -1.34066,-2.408685 -1.96298,-3.639595 -1.38292,-2.59718 -2.72617,-5.479001 -3.91959,-8.225458 -0.86304,-1.841937 -1.38804,-3.681342 -2.4406,-5.385388 -4.92986,-8.033175 -10.2836,-12.89862 -18.51201,-17.674244 -1.76836,-0.994342 -3.8722,-1.418138 -6.11947,-1.939345 l -3.58919,-0.18723 c -0.76572,-0.331447 -1.53274,-1.230909 -2.20116,-1.655972 -2.73,-1.700249 -9.758597,-5.385387 -11.766402,-0.519943 -1.293292,3.075376 1.913048,6.098885 3.014269,7.658711 0.813112,1.082897 1.866946,2.31507 2.435489,3.544715 0.336769,0.803316 0.43152,1.655972 0.768289,2.504831 0.765733,2.079769 1.481535,4.393574 2.487995,6.334186 0.52499,0.989282 1.09738,2.029166 1.76835,2.924832 0.38413,0.523738 1.05256,0.755244 1.19854,1.609165 -0.66713,0.941209 -0.71964,2.361877 -1.1025,3.54345 -1.72098,5.339844 -1.04872,11.954873 1.3906,15.879109 0.76317,1.181572 2.58403,3.782546 5.01952,2.785675 2.15634,-0.850125 1.67872,-3.54345 2.29846,-5.905327 0.14215,-0.570545 0.0487,-0.945006 0.3355,-1.319465 v 0.09235 c 0.66714,1.321994 1.34066,2.595915 1.95915,3.921705 1.48409,2.313805 4.06811,4.725021 6.22061,6.327859 1.14603,0.855186 2.0539,2.317602 3.48933,2.840075 v -0.141689 h -0.0948 c -0.29066,-0.423796 -0.71578,-0.613556 -1.09737,-0.942473 -0.86305,-0.85139 -1.81829,-1.891275 -2.48798,-2.835014 -2.00525,-2.647782 -3.78001,-5.578942 -5.35501,-8.603714 -0.77084,-1.467476 -1.43542,-3.07158 -2.05646,-4.536527 -0.28939,-0.565485 -0.28939,-1.418138 -0.76958,-1.702779 -0.71963,1.038619 -1.76835,1.938082 -2.29333,3.210737 -0.91044,2.035493 -1.0052,4.539059 -1.34325,7.142564 l -0.18823,0.09108 c -1.52378,-0.378255 -2.05391,-1.935552 -2.63268,-3.257546 -1.43287,-3.357485 -1.6736,-8.746667 -0.43026,-12.620298 0.33294,-0.990548 1.77349,-4.110199 1.19855,-5.053939 -0.28811,-0.904522 -1.24591,-1.419404 -1.77092,-2.131637 -0.61718,-0.895666 -1.29329,-2.029166 -1.72354,-3.023508 -1.1473,-2.645252 -1.72481,-5.576411 -2.960475,-8.220397 -0.577507,-1.232176 -1.580129,-2.507361 -2.391957,-3.642127 -0.911707,-1.275187 -1.914328,-2.173383 -2.635244,-3.685137 -0.23817,-0.519942 -0.572378,-1.370067 -0.189512,-1.935552 0.09348,-0.379519 0.288111,-0.521206 0.669694,-0.616087 0.619758,-0.517412 2.390673,0.140424 3.011708,0.425062 1.773476,0.708439 3.256276,1.370067 4.736536,2.361879 0.66967,0.474399 1.38803,1.372596 2.24724,1.609164 h 1.00647 c 1.52763,0.328917 3.24989,0.09108 4.68787,0.518677 2.53407,0.804582 4.82999,1.98489 6.88901,3.258811 6.26544,3.925499 11.43221,9.503176 14.92025,16.165013 0.57237,1.085427 0.81568,2.07977 1.33813,3.212004 1.00773,2.3176 2.25364,4.680744 3.25371,6.949007 1.00517,2.220191 1.96298,4.487191 3.39841,6.331656 0.7158,0.991812 3.59177,1.511753 4.88121,2.031696 0.95398,0.423798 2.43934,0.800787 3.29982,1.320729 1.62751,0.990548 3.24861,2.12784 4.7788,3.217063 0.76187,0.56675 3.15638,1.748322 3.29853,2.69459 m -48.79436,-41.0691 a 7.4524395,7.3626845 0 0 0 -1.95787,0.237833 v 0.09488 h 0.0921 c 0.38544,0.755244 1.05513,1.278981 1.53276,1.938081 0.38542,0.757775 0.71963,1.509223 1.09737,2.265733 l 0.0921,-0.09362 c 0.67481,-0.47187 1.01031,-1.22838 1.01031,-2.363144 -0.29067,-0.333977 -0.3355,-0.660365 -0.57749,-0.991813 -0.28171,-0.473134 -0.90275,-0.708436 -1.28946,-1.087956"
     id="path8"
     inkscape:connector-curvature="0"
     style="fill:#5d87a1;stroke-width:1.27275372" />
  <path
     d="m 161.70372,120.97296 h 0.99109 v -4.79207 h -1.48664 l -1.21262,3.2702 -1.31762,-3.2702 h -1.43158 v 4.79207 h 0.93603 v -3.64591 h 0.0526 l 1.38037,3.64591 h 0.71323 l 1.37524,-3.64591 z m -7.98383,0 h 1.04872 v -3.97989 h 1.37267 v -0.81344 h -3.85169 v 0.81344 h 1.42773 z"
     id="path10"
     inkscape:connector-curvature="0"
     style="fill:#f8981d;stroke-width:1.27275372" />
</svg>
